<svg width="228" height="228" viewBox="0 0 228 228" fill="none" xmlns="http://www.w3.org/2000/svg">
<circle cx="114" cy="114" r="114" fill="#DDDDDD"/>
<path d="M67.7523 81.2009C83.1758 63.9432 109.989 71.5309 120.27 76.76C125.412 74.7987 139.501 72.5488 148.759 78.8237C160.325 86.6689 174.898 107.495 161.402 136.915C150.605 160.451 122.411 170.347 112.127 172.963C104.415 169.696 87.4677 163.132 69.3939 146.746C53.0083 131.888 48.4744 102.775 67.7523 81.204V81.2009Z" stroke="#F17070" stroke-width="9" stroke-linejoin="round"/>
<path d="M120.27 76.76C114.299 79.0875 102.358 83.7425 95.8469 97.7075C88.8458 112.715 94.2177 125.638 95.8469 132.62" stroke="#F17070" stroke-width="9" stroke-linecap="round" stroke-linejoin="round"/>
<path d="M101.65 51.9333C102.683 52.4516 109.408 53.485 110.96 59.6917C112.316 65.1194 109.927 68.4834 109.408 72.105" stroke="#F17070" stroke-width="9" stroke-linecap="round"/>
<path d="M124.86 74.6746C124.177 74.6636 123.505 74.5003 122.894 74.1965C122.282 73.8927 121.746 73.4562 121.325 72.9187C120.904 72.3812 120.608 71.7565 120.46 71.09C120.311 70.4236 120.313 69.7324 120.465 69.0668C121.303 65.0728 123.203 59.6203 127.498 56.2532C131.793 52.8892 137.543 52.3461 141.621 52.4888C142.304 52.4993 142.976 52.6623 143.588 52.9659C144.2 53.2694 144.736 53.706 145.158 54.2435C145.579 54.781 145.875 55.4059 146.024 56.0726C146.173 56.7392 146.171 57.4308 146.018 58.0965C145.18 62.0936 143.278 67.5462 138.983 70.9133C134.688 74.2773 128.941 74.8173 124.86 74.6746Z" stroke="#F17070" stroke-width="9"/>
</svg>
